PathFileType	4	(X/Y/Z)	C:\Documents and Settings\rtobon\Desktop\NewMocap\New\NoT\ActorC_TPose.trc
DataRate	CameraRate	NumFrames	NumMarkers	Units	OrigDataRate	OrigDataStartFrame	OrigNumFrames
120.00	120.00	       7	49	mm	120.00	174	       277
Frame#	Time	Root			LtFtHip			LtBkHip			RtFtHip			RtBkHip			Spine1			Spine2			Spine3			SpineOffsetLow			SpineOffsetHigh			LtCtChest			RtCtChest			LtChest			RtChest			LtShoulder			LtBicep			LtElbow			LtForeArm			LtWrist			LtPinky			LtThumb			LtMiddFing			RtShoulder			RtBicep			RtElbow			RtForeArm			RtWrist			RtPinky			RtThumb			RtMiddFing			LtThigh			LtKnee			LtCalf			LtAnkle			LtHeel			LtBall			LtToe			RtThigh			RtKnee			RtCalf			RtAnkle			RtHeel			RtBall			RtToe			TopHead			LfFtHead			LtBkHead			RtFtHead			RtBkHead			
		X1	Y1	Z1	X2	Y2	Z2	X3	Y3	Z3	X4	Y4	Z4	X5	Y5	Z5	X6	Y6	Z6	X7	Y7	Z7	X8	Y8	Z8	X9	Y9	Z9	X10	Y10	Z10	X11	Y11	Z11	X12	Y12	Z12	X13	Y13	Z13	X14	Y14	Z14	X15	Y15	Z15	X16	Y16	Z16	X17	Y17	Z17	X18	Y18	Z18	X19	Y19	Z19	X20	Y20	Z20	X21	Y21	Z21	X22	Y22	Z22	X23	Y23	Z23	X24	Y24	Z24	X25	Y25	Z25	X26	Y26	Z26	X27	Y27	Z27	X28	Y28	Z28	X29	Y29	Z29	X30	Y30	Z30	X31	Y31	Z31	X32	Y32	Z32	X33	Y33	Z33	X34	Y34	Z34	X35	Y35	Z35	X36	Y36	Z36	X37	Y37	Z37	X38	Y38	Z38	X39	Y39	Z39	X40	Y40	Z40	X41	Y41	Z41	X42	Y42	Z42	X43	Y43	Z43	X44	Y44	Z44	X45	Y45	Z45	X46	Y46	Z46	X47	Y47	Z47	X48	Y48	Z48	X49	Y49	Z49	

174	1.442	30.37307	978.24493	-153.81512	161.32857	936.68341	54.33975	162.98587	971.57788	-119.49066	-111.27785	931.73419	60.38437	-108.31698	950.66571	-130.55777	29.88804	1137.32617	-149.79723	32.21179	1279.51135	-153.71191	40.76767	1406.84521	-120.60457	-53.98325	1044.22388	-139.11299	130.37381	1353.38208	-138.96964	53.88005	1215.02332	110.81060	-4.94681	1285.49658	95.81730	127.08538	1325.36279	77.13366	-73.78466	1331.29346	64.23158	164.72676	1426.71741	-21.86450	359.06009	1381.99402	-16.37403	476.53610	1363.13989	-86.43026	587.13788	1370.45569	0.49761	707.41724	1377.34314	-19.86898	770.08759	1342.58960	-63.98829	736.03516	1355.49817	47.75795	761.57867	1383.40967	-8.13385	-113.02391	1426.80017	-44.64348	-298.16199	1379.18506	-0.18613	-408.08740	1373.03613	-109.40087	-532.90503	1386.77942	-1.02018	-656.47894	1413.44849	-43.09317	-719.04089	1373.89233	-86.76372	-679.80292	1375.46594	30.04222	-718.79016	1409.79346	-29.22276	169.80115	681.76318	59.15158	191.99074	488.11050	-17.88731	202.79294	375.45407	-141.26860	203.19026	167.43971	-84.49248	152.07086	45.83601	-172.82294	212.43895	64.38286	4.86197	154.62756	57.64577	99.31835	-129.54543	672.15521	49.59989	-160.74388	512.11340	-26.40679	-190.40266	376.36133	-131.07700	-182.63301	165.65707	-98.85563	-123.00806	47.59255	-170.77957	-206.01031	65.30453	5.57289	-150.56465	65.00368	100.77838	30.64634	1692.33142	-39.41685	88.88496	1626.21667	56.28329	121.47480	1547.52673	-72.10970	-48.83923	1625.25720	35.09321	-36.82209	1545.96533	-102.82810	
175	1.450	30.37307	978.24493	-153.81512	161.26918	936.62848	54.38234	163.00354	971.50610	-119.43082	-111.27785	931.73419	60.38437	-108.36416	950.78510	-130.47987	29.88804	1137.32617	-149.79723	32.40223	1279.31946	-153.46317	40.76767	1406.84521	-120.60457	-53.98325	1044.22388	-139.11299	130.29103	1353.49780	-139.02510	53.88005	1215.02332	110.81060	-5.13759	1285.59827	95.76018	127.08538	1325.36279	77.13366	-73.65997	1331.35059	64.43866	164.70050	1426.67310	-21.81219	359.13974	1381.98596	-16.41052	476.74738	1363.14258	-86.16993	587.07495	1370.47351	0.33205	707.51172	1377.37085	-19.92179	769.99677	1342.67310	-64.16976	736.13654	1355.65271	47.68258	761.63782	1383.43359	-8.29024	-113.01538	1426.76660	-44.78596	-298.09247	1379.19946	-0.05691	-407.91632	1373.01355	-109.49049	-532.90668	1386.77515	-1.03194	-656.43640	1413.40601	-43.04496	-719.11469	1373.83191	-86.75494	-679.83514	1375.55383	29.96212	-718.86603	1409.84290	-29.39736	169.60286	681.76471	59.21200	192.02043	488.06296	-17.80115	202.77170	375.51010	-141.38335	203.26765	167.46173	-84.61172	151.78391	46.04374	-173.01703	212.30745	64.25711	4.58952	154.68213	57.69156	99.26457	-129.61095	672.07697	49.77272	-160.83218	512.09180	-26.40765	-190.30328	376.43863	-131.17593	-182.63301	165.65707	-98.85563	-123.00806	47.59255	-170.77957	-206.07062	65.33598	5.57203	-150.52641	65.07617	100.68255	30.61821	1692.26807	-39.40664	88.73904	1626.40796	56.57228	121.56593	1547.49585	-72.03288	-48.80031	1625.19641	35.11996	-36.85724	1546.02417	-102.95789	
176	1.458	30.37307	978.24493	-153.81512	161.28777	936.83020	54.37283	162.95351	971.50513	-119.24523	-111.27785	931.73419	60.38437	-108.48936	950.66205	-130.53242	29.88804	1137.32617	-149.79723	32.42012	1279.32239	-153.64738	40.76767	1406.84521	-120.60457	-53.98325	1044.22388	-139.11299	130.43532	1353.33118	-138.95940	53.84501	1215.10156	110.96984	-5.07101	1285.65271	95.84280	127.08538	1325.36279	77.13366	-73.78714	1331.25696	64.45083	164.78819	1426.65674	-21.89512	359.04999	1381.98792	-16.37737	476.64359	1363.32666	-86.54695	587.14783	1370.55994	0.22069	707.55322	1377.34827	-20.07133	770.10150	1342.68665	-64.20522	736.12567	1355.62964	47.56413	761.64233	1383.37366	-8.40057	-112.98131	1426.75000	-44.68887	-298.19315	1379.22876	-0.17406	-408.02487	1373.04138	-109.32581	-533.00189	1386.78345	-1.02449	-656.38672	1413.44763	-43.02803	-719.04089	1373.89233	-86.76372	-679.87921	1375.51465	29.93950	-718.91467	1409.89160	-29.40537	169.59668	681.72827	59.27697	192.02043	488.06296	-17.80115	202.77879	375.49045	-141.14787	203.20331	167.51294	-84.55463	151.90030	46.04170	-172.92029	212.32112	64.36122	4.69744	154.71230	57.74845	99.18425	-129.64995	672.13971	49.72269	-160.83218	512.09180	-26.40765	-190.29169	376.38126	-131.03540	-182.63301	165.65707	-98.85563	-123.00806	47.59255	-170.77957	-206.01031	65.30453	5.57289	-150.59334	65.07093	100.72612	30.63212	1692.30481	-39.46951	88.84048	1626.37354	56.57568	121.58862	1547.53162	-72.15778	-48.74820	1625.39392	35.03732	-36.56044	1545.89648	-102.24377	
177	1.467	30.37307	978.24493	-153.81512	161.24716	936.73376	54.45222	162.86891	971.49512	-119.20007	-111.32919	931.65631	60.37582	-108.36416	950.78510	-130.47987	29.83617	1137.10400	-149.67780	32.42012	1279.32239	-153.64738	40.78693	1406.89734	-120.63652	-53.98325	1044.22388	-139.11299	130.34671	1353.43689	-138.96442	53.84942	1215.04065	110.72611	-5.06176	1285.71008	95.82426	126.97224	1325.41333	77.17248	-73.92009	1331.33130	64.35819	164.68887	1426.59045	-21.90406	358.98611	1381.99976	-16.47235	476.61935	1363.11084	-86.48360	587.09003	1370.64343	0.23191	707.58319	1377.37549	-20.14750	769.84851	1342.73193	-64.38876	736.28339	1355.69080	47.36007	761.64246	1383.42383	-8.43338	-112.98131	1426.75000	-44.68887	-298.19931	1379.25073	-0.14067	-407.99008	1373.09888	-109.37349	-532.98914	1386.85840	-1.13870	-657.01538	1413.41638	-43.22126	-719.04089	1373.89233	-86.76372	-679.84863	1375.62097	29.88727	-718.83447	1409.92542	-29.23900	169.51759	681.69330	59.34026	191.86667	488.03360	-17.63022	202.79294	375.45407	-141.26860	203.26288	167.53981	-84.53870	151.79678	45.94600	-173.06638	211.95695	64.28984	4.35701	154.62756	57.64577	99.31835	-129.61095	672.07697	49.77272	-160.90945	512.15790	-26.42758	-190.40266	376.36133	-131.07700	-182.63301	165.65707	-98.85563	-122.94687	47.49068	-170.79173	-205.95834	65.32327	5.52892	-150.61931	65.09384	100.64307	30.64634	1692.33142	-39.41685	88.83861	1626.31604	56.04494	121.56593	1547.49585	-72.03288	-48.71611	1625.17993	35.22982	-36.82879	1546.12939	-102.81843	
178	1.475	30.37307	978.24493	-153.81512	161.29848	936.73291	54.50701	162.77585	971.41064	-119.04119	-111.39967	931.66034	60.42717	-108.48936	950.66205	-130.53242	29.83617	1137.10400	-149.67780	32.42012	1279.32239	-153.64738	40.78693	1406.89734	-120.63652	-54.05209	1044.13770	-138.88724	130.40822	1353.38599	-138.95418	53.80772	1215.19751	111.05424	-5.25434	1285.73914	95.82533	126.97224	1325.41333	77.17248	-73.99208	1331.31238	64.47166	164.77164	1426.61560	-21.94450	358.99692	1381.95813	-16.45244	476.68164	1363.29089	-86.53462	587.13959	1370.59253	0.25066	707.58319	1377.37549	-20.14750	769.78754	1342.78589	-64.59852	736.14764	1355.71533	47.21296	761.64246	1383.42383	-8.43338	-112.99923	1426.80164	-44.80828	-298.10260	1379.21851	-0.02113	-407.99008	1373.09888	-109.37349	-532.96576	1386.89722	-1.14833	-657.01843	1413.44214	-43.21818	-719.11469	1373.83191	-86.75494	-679.91455	1375.60876	29.80757	-718.93164	1409.95862	-29.44448	169.46747	681.73016	59.51805	191.87433	487.90222	-17.66162	202.77879	375.49045	-141.14787	203.18549	167.51779	-84.41946	151.89554	46.19519	-173.09726	211.76717	64.12149	4.42586	154.67014	57.73072	99.32303	-129.56146	672.18933	49.83545	-161.10741	511.91400	-26.68278	-190.29169	376.38126	-131.03540	-182.63301	165.65707	-98.85563	-122.94687	47.49068	-170.79173	-206.01031	65.30453	5.57289	-150.52641	65.07617	100.68255	30.63212	1692.30481	-39.46951	88.75140	1626.47754	56.40268	121.56593	1547.49585	-72.03288	-48.71611	1625.17993	35.22982	-36.87074	1546.02234	-102.48655	
179	1.483	30.37307	978.24493	-153.81512	161.25122	936.79083	54.68454	162.75581	971.45093	-119.04717	-111.39967	931.66034	60.42717	-108.23958	950.79114	-130.43970	29.83617	1137.10400	-149.67780	32.33453	1279.36597	-153.58348	40.80424	1406.76526	-120.65353	-54.05209	1044.13770	-138.88724	130.43532	1353.33118	-138.95940	53.64527	1215.30200	111.24750	-5.07727	1285.61877	95.77597	127.09176	1325.38904	77.30352	-73.86359	1331.37500	64.48999	164.63963	1426.70618	-22.03084	359.11798	1382.00574	-16.17081	476.57526	1363.34424	-86.47710	587.18561	1370.64343	0.25617	707.53271	1377.49268	-20.28820	769.84058	1342.77002	-64.51352	736.16681	1355.74329	47.33884	761.73114	1383.46350	-8.46439	-113.05798	1426.81689	-44.74057	-298.25662	1379.26038	-0.08237	-408.10147	1373.07153	-109.46047	-532.99506	1386.91809	-1.22744	-657.05353	1413.49854	-43.29921	-719.11469	1373.83191	-86.75494	-679.91455	1375.60876	29.80757	-718.92377	1410.01868	-29.49566	169.48425	681.71130	59.65627	191.87433	487.90222	-17.66162	202.77879	375.49045	-141.14787	203.26765	167.46173	-84.61172	151.78391	46.04374	-173.01703	212.21176	64.44363	4.96327	154.60730	57.63051	99.36172	-129.61751	672.04034	49.98067	-160.88644	511.89661	-26.39205	-190.47346	376.36526	-131.17592	-182.63301	165.65707	-98.85563	-123.00806	47.59255	-170.77957	-206.07062	65.33598	5.57203	-150.51555	65.12781	100.63303	30.61821	1692.26807	-39.40664	88.81771	1626.35144	56.53019	121.39120	1547.48315	-72.23804	-48.80031	1625.19641	35.11996	-36.62094	1545.82031	-102.33256	
180	1.492	30.37307	978.24493	-153.81512	161.09105	936.74139	54.62049	162.75581	971.45093	-119.04717	-111.39967	931.66034	60.42717	-108.36416	950.78510	-130.47987	29.94499	1137.07910	-149.49284	32.42012	1279.32239	-153.64738	40.80336	1406.79858	-120.61268	-54.05209	1044.13770	-138.88724	130.41003	1353.31079	-138.84015	53.64527	1215.30200	111.24750	-5.21974	1285.66528	95.83595	126.97863	1325.43945	77.34233	-73.90384	1331.40161	64.61652	164.69604	1426.71558	-21.88227	359.11044	1382.09546	-16.41226	476.62576	1363.37268	-86.52295	587.11707	1370.64685	0.32233	707.53271	1377.49268	-20.28820	769.81976	1342.83594	-64.61089	736.08252	1355.77893	47.19234	761.66846	1383.50317	-8.47548	-113.04183	1426.85193	-44.76290	-298.20853	1379.28271	-0.14706	-408.10147	1373.07153	-109.46047	-533.01801	1386.87524	-1.21188	-657.02405	1413.49951	-43.26189	-719.04089	1373.89233	-86.76372	-679.93433	1375.64722	29.77847	-718.93164	1409.95862	-29.44448	169.50027	681.71191	59.55489	191.76924	487.95535	-17.58787	202.77879	375.49045	-141.14787	203.20331	167.51294	-84.55463	151.77914	46.19724	-173.19402	211.95337	64.29551	4.56179	154.64209	57.75773	99.28571	-129.61095	672.07697	49.77272	-160.83218	512.09180	-26.40765	-190.40266	376.36133	-131.07700	-182.70140	165.71255	-98.86638	-123.00806	47.59255	-170.77957	-206.07062	65.33598	5.57203	-150.51555	65.12781	100.63303	30.57786	1692.33044	-39.46907	88.79494	1626.24194	56.18204	121.46780	1547.45117	-72.17831	-48.87288	1625.14783	35.11641	-36.85724	1546.02417	-102.95789	
